{
  "source": "C:\\Users\\Peter\\Desktop\\stuff\\MIUN\\quantitative_research\\video_compression\\videos\\HEVC_CLASS_B\\Cactus_1920x1080_50.y4m",
  "output": "C:\\Users\\Peter\\Desktop\\stuff\\MIUN\\quantitative_research\\video_compression\\compressed_videos\\HEVC_CLASS_B\\h264\\1\\Cactus_1920x1080_50_h264.mp4",
  "codec": "h264",
  "ok": "Input #0, yuv4mpegpipe, from 'C:\\Users\\Peter\\Desktop\\stuff\\MIUN\\quantitative_research\\video_compression\\videos\\HEVC_CLASS_B\\Cactus_1920x1080_50.y4m':\n  Duration: 00:00:10.00, start: 0.000000, bitrate: 1244162 kb/s\n  Stream #0:0: Video: rawvideo (I420 / 0x30323449), yuv420p(progressive), 1920x1080, 50 fps, 50 tbr, 50 tbn\n[out#0/mp4 @ 000001e254619880] Codec AVOption b:a (set bitrate (in bits/s)) has not been used for any stream. The most likely reason is either wrong type (e.g. a video option with no video streams) or that it is a private option of some decoder which was not actually used for any stream.\nStream mapping:\n  Stream #0:0 -> #0:0 (rawvideo (native) -> h264 (libx264))\nPress [q] to stop, [?] for help\n[libx264 @ 000001e25461c8c0] using cpu capabilities: MMX2 SSE2Fast SSSE3 SSE4.2 AVX FMA3 BMI2 AVX2\n[libx264 @ 000001e25461c8c0] profile High, level 5.0, 4:2:0, 8-bit\n[libx264 @ 000001e25461c8c0] 264 - core 165 r3222 b35605a - H.264/MPEG-4 AVC codec - Copyleft 2003-2025 - http://www.videolan.org/x264.html - options: cabac=1 ref=5 deblock=1:0:0 analyse=0x3:0x113 me=hex subme=8 psy=1 psy_rd=1.00:0.00 mixed_ref=1 me_range=16 chroma_me=1 trellis=2 8x8dct=1 cqm=0 deadzone=21,11 fast_pskip=1 chroma_qp_offset=-2 threads=18 lookahead_threads=3 sliced_threads=0 nr=0 decimate=1 interlaced=0 bluray_compat=0 constrained_intra=0 bframes=3 b_pyramid=2 b_adapt=1 b_bias=0 direct=3 weightb=1 open_gop=0 weightp=2 keyint=250 keyint_min=25 scenecut=40 intra_refresh=0 rc_lookahead=50 rc=cbr mbtree=1 bitrate=1000 ratetol=1.0 qcomp=0.60 qpmin=0 qpmax=69 qpstep=4 vbv_maxrate=1000 vbv_bufsize=1000 nal_hrd=none filler=0 ip_ratio=1.40 aq=1:1.00\nOutput #0, mp4, to 'C:\\Users\\Peter\\Desktop\\stuff\\MIUN\\quantitative_research\\video_compression\\compressed_videos\\HEVC_CLASS_B\\h264\\1\\Cactus_1920x1080_50_h264.mp4':\n  Metadata:\n    encoder         : Lavf62.3.100\n  Stream #0:0: Video: h264 (avc1 / 0x31637661), yuv420p(tv, progressive), 1920x1080, q=2-31, 1000 kb/s, 50 fps, 12800 tbn\n    Metadata:\n      encoder         : Lavc62.11.100 libx264\n    Side data:\n      cpb: bitrate max/min/avg: 1000000/0/1000000 buffer size: 1000000 vbv_delay: N/A\nframe=    0 fps=0.0 q=0.0 size=       0KiB time=N/A bitrate=N/A speed=N/A elapsed=0:00:00.51    \nframe=    0 fps=0.0 q=0.0 size=       0KiB time=N/A bitrate=N/A speed=N/A elapsed=0:00:01.10    \nframe=   20 fps= 12 q=49.0 size=       0KiB time=00:00:00.34 bitrate=   1.1kbits/s speed=0.204x elapsed=0:00:01.66    \nframe=   56 fps= 25 q=48.0 size=       0KiB time=00:00:00.92 bitrate=   0.4kbits/s speed=0.406x elapsed=0:00:02.26    \nframe=   88 fps= 30 q=48.0 size=       0KiB time=00:00:01.64 bitrate=   0.2kbits/s speed=0.552x elapsed=0:00:02.97    \nframe=  116 fps= 32 q=48.0 size=       0KiB time=00:00:02.20 bitrate=   0.2kbits/s speed= 0.6x elapsed=0:00:03.66    \nframe=  144 fps= 33 q=48.0 size=     256KiB time=00:00:02.84 bitrate= 738.6kbits/s speed=0.652x elapsed=0:00:04.35    \nframe=  172 fps= 35 q=48.0 size=     256KiB time=00:00:03.40 bitrate= 616.9kbits/s speed=0.696x elapsed=0:00:04.88    \nframe=  200 fps= 37 q=48.0 size=     256KiB time=00:00:03.96 bitrate= 529.7kbits/s speed=0.732x elapsed=0:00:05.41    \nframe=  232 fps= 39 q=48.0 size=     256KiB time=00:00:04.52 bitrate= 464.1kbits/s speed=0.759x elapsed=0:00:05.95    \nframe=  242 fps= 37 q=48.0 size=     256KiB time=00:00:04.80 bitrate= 437.0kbits/s speed=0.732x elapsed=0:00:06.55    \nframe=  274 fps= 39 q=48.0 size=     512KiB time=00:00:05.44 bitrate= 771.1kbits/s speed=0.766x elapsed=0:00:07.10    \nframe=  306 fps= 40 q=48.0 size=     512KiB time=00:00:06.02 bitrate= 696.8kbits/s speed=0.789x elapsed=0:00:07.62    \nframe=  338 fps= 41 q=48.0 size=     512KiB time=00:00:06.64 bitrate= 631.7kbits/s speed=0.811x elapsed=0:00:08.19    \nframe=  366 fps= 42 q=48.0 size=     512KiB time=00:00:07.28 bitrate= 576.2kbits/s speed=0.831x elapsed=0:00:08.76    \nframe=  398 fps= 43 q=48.0 size=     768KiB time=00:00:07.84 bitrate= 802.5kbits/s speed=0.845x elapsed=0:00:09.27    \nframe=  426 fps= 43 q=48.0 size=     768KiB time=00:00:08.42 bitrate= 747.2kbits/s speed=0.858x elapsed=0:00:09.81    \nframe=  460 fps= 44 q=47.0 size=     768KiB time=00:00:09.04 bitrate= 696.0kbits/s speed=0.873x elapsed=0:00:10.34    \nframe=  493 fps= 45 q=-1.0 size=    1024KiB time=00:00:09.80 bitrate= 856.0kbits/s speed=0.896x elapsed=0:00:10.93    \n[mp4 @ 000001e254619980] Starting second pass: moving the moov atom to the beginning of the file\n[out#0/mp4 @ 000001e254619880] video:1057KiB audio:0KiB subtitle:0KiB other streams:0KiB global headers:0KiB muxing overhead: 0.634767%\nframe=  500 fps= 45 q=-1.0 Lsize=    1064KiB time=00:00:09.96 bitrate= 875.0kbits/s speed=0.896x elapsed=0:00:11.11    \n[libx264 @ 000001e25461c8c0] frame I:2     Avg QP:44.20  size: 25774\n[libx264 @ 000001e25461c8c0] frame P:126   Avg QP:46.90  size:  4414\n[libx264 @ 000001e25461c8c0] frame B:372   Avg QP:48.39  size:  1274\n[libx264 @ 000001e25461c8c0] consecutive B-frames:  0.8%  0.0%  0.0% 99.2%\n[libx264 @ 000001e25461c8c0] mb I  I16..4: 44.3% 51.7%  4.0%\n[libx264 @ 000001e25461c8c0] mb P  I16..4:  3.8%  1.1%  0.0%  P16..4: 19.5%  0.9%  1.9%  0.0%  0.0%    skip:72.8%\n[libx264 @ 000001e25461c8c0] mb B  I16..4:  0.1%  0.1%  0.0%  B16..8: 14.5%  0.1%  0.0%  direct: 0.1%  skip:85.0%  L0:31.8% L1:68.0% BI: 0.2%\n[libx264 @ 000001e25461c8c0] 8x8 transform intra:29.9% inter:94.2%\n[libx264 @ 000001e25461c8c0] direct mvs  spatial:97.3% temporal:2.7%\n[libx264 @ 000001e25461c8c0] coded y,uvDC,uvAC intra: 7.7% 29.1% 4.0% inter: 0.4% 1.7% 0.0%\n[libx264 @ 000001e25461c8c0] i16 v,h,dc,p: 40% 27%  6% 26%\n[libx264 @ 000001e25461c8c0] i8 v,h,dc,ddl,ddr,vr,hd,vl,hu: 11%  6% 30% 10% 12% 10%  8%  7%  6%\n[libx264 @ 000001e25461c8c0] i4 v,h,dc,ddl,ddr,vr,hd,vl,hu: 19%  7% 14% 11% 13% 13%  8%  7%  8%\n[libx264 @ 000001e25461c8c0] i8c dc,h,v,p: 74% 15%  9%  2%\n[libx264 @ 000001e25461c8c0] Weighted P-Frames: Y:0.0% UV:0.0%\n[libx264 @ 000001e25461c8c0] ref P L0: 63.2%  2.8% 20.2%  5.7%  8.1%\n[libx264 @ 000001e25461c8c0] ref B L0: 85.4%  9.8%  3.7%  1.1%\n[libx264 @ 000001e25461c8c0] ref B L1: 96.0%  4.0%\n[libx264 @ 000001e25461c8c0] kb/s:865.35\n",
  "seconds": 11.330160856246948,
  "probe_out": {}
}